<?xml version="1.0" encoding="UTF-8"?> <svg xmlns="http://www.w3.org/2000/svg" id="Layer_1" data-name="Layer 1" viewBox="0 0 600 600"><defs><style> .cls-1 { fill: #343537; stroke: #343537; stroke-miterlimit: 10; stroke-width: 2px; } </style></defs><path class="cls-1" d="M501.72,429.2l-.02-.02-42.35-43.4,34.99-16.87c1-.48,1.69-1.43,1.84-2.53,.15-1.1-.25-2.2-1.07-2.94l-17.85-15.97c2.12-29.69-8.67-58.66-29.77-79.7l-103.81-103.56c-1.3-1.29-3.4-1.29-4.69,0-8.09,8.09-12.55,18.86-12.55,30.3,0,3.2,.35,6.34,1.03,9.39l-81.33-81.33c-15.92-15.92-41.35-16.67-58.17-2.26l-1.17-1.17c-16.71-16.71-43.89-16.71-60.6,0-1.3,1.3-1.3,3.4,0,4.69l12.99,12.99c-14.16-3.58-29.81,.16-40.87,11.22-.62,.62-.97,1.47-.97,2.35,0,.88,.35,1.73,.98,2.35l42.79,42.49c-3.03-.67-6.15-1.01-9.32-1.01-11.45,0-22.21,4.46-30.3,12.55-.62,.62-.97,1.47-.97,2.35,0,.88,.35,1.72,.97,2.34h0s0,0,0,0c0,0,0,0,0,0h0s49.7,49.61,49.7,49.61c-2.91-.61-5.9-.93-8.95-.93-11.45,0-22.21,4.46-30.3,12.55-1.3,1.3-1.3,3.4,0,4.69l111.88,111.88,58.13,58.14c10.12,10.12,21.97,17.86,35.2,23.01,12.35,4.8,25.34,7.13,38.61,6.93l12.11,11.75,3.46,3.36c.63,.61,1.47,.94,2.31,.94,.47,0,.95-.1,1.4-.31l99.13-46.16,24.47-11.39,2.11-.98c.98-.45,1.67-1.35,1.86-2.41,.19-1.06-.14-2.15-.89-2.92ZM341.44,171.36l101.36,101.11c20.09,20.04,30.19,47.78,27.71,76.09-.09,1.04,.31,2.07,1.09,2.76l15.38,13.76-30.61,14.76c1.33-28.79-9.44-56.69-29.92-77.12l-27.67-27.6,.07-.07-56.4-56.22c-12.14-13.38-12.48-33.71-1.01-47.48Zm-100.01-44.09l74.3,74.3c-6.68,7.76-10.33,17.55-10.33,27.91,0,3.09,.33,6.13,.96,9.08l-113.69-113.52c14.21-11.83,35.43-11.09,48.76,2.24Zm-108.1-5.67c14.21-11.84,35.43-11.09,48.76,2.24l3.43,3.43s0,0,0,0h0s17.15,17.13,17.15,17.13c-3.54-1.13-7.2-1.95-10.89-2.42-6.58-.84-12.79-.54-18.47,.88-4.86,1.23-9.13,3.24-12.72,6.01l-27.27-27.27Zm226.05,350c-.62-.6-1.45-.94-2.31-.94-.03,0-.06,0-.09,0-12.88,.37-25.47-1.8-37.43-6.45-12.37-4.81-23.45-12.05-32.91-21.51L119.08,275.16c6.49-5.42,14.6-8.37,23.15-8.37s16.18,2.78,22.57,7.89l71.27,71.14,.13-.13,4.56-4.57-67.55-67.42c-.16-.36-.39-.7-.68-1,0,0,0,0,0,0h0c-.06-.06-.13-.13-.19-.19l-37.11-36.86-26.6-26.42c6.49-5.41,14.59-8.36,23.15-8.36,9.07,0,17.63,3.31,24.31,9.38l15.94,15.88,13.16,13.11,71.91,71.64,.25-.25,7.49,7.47,4.69-4.7-99.74-99.4-22.1-22.03-.24,.24-9.27-9.21-32.72-32.49c14.21-11.83,35.43-11.08,48.75,2.25l3.43,3.43s0,0,0,0h0s17.21,17.09,17.21,17.09l12.71,12.62,106.65,105.89,4.68-4.71-8.52-8.46,.18-.19-121.8-121.38-3.42-3.42c6.39-4.52,15.47-6.36,25.59-5.06,11.34,1.45,22.35,6.56,29.46,13.66l97.55,97.55c.13,.13,.27,.24,.41,.35l54.77,54.59,4.69-4.7-56.41-56.22c-6.06-6.67-9.37-15.24-9.37-24.31,0-8.56,2.95-16.67,8.37-23.16l101.36,101.11c20.01,19.96,30.11,47.54,27.74,75.73-.01,.12-.02,.24-.03,.36-.08,.96,.26,1.92,.93,2.61l2.63,2.7,40.66,41.66-119.39,55.6-14.93-14.48Z"></path></svg> 