<?xml version="1.0" encoding="UTF-8"?> <svg xmlns="http://www.w3.org/2000/svg" id="Layer_1" data-name="Layer 1" viewBox="0 0 600 600"><defs><style> .cls-1 { fill: #343537; stroke: #343537; stroke-miterlimit: 10; stroke-width: 2px; } </style></defs><path class="cls-1" d="M485.84,221.49c-10.16-24.02-24.7-45.59-43.22-64.11-18.52-18.52-40.09-33.06-64.11-43.22-24.87-10.52-51.28-15.85-78.51-15.85s-53.64,5.33-78.51,15.85c-24.02,10.16-45.59,24.7-64.11,43.22-18.52,18.52-33.06,40.09-43.22,64.11-10.52,24.87-15.85,51.28-15.85,78.51s5.33,53.64,15.85,78.51c10.16,24.02,24.7,45.59,43.22,64.11,18.52,18.52,40.09,33.06,64.11,43.22,24.84,10.51,51.23,15.84,78.43,15.85,0,0,0,0,.01,0,0,0,0,0,0,0,.02,0,.04,0,.06,0,27.23,0,53.64-5.33,78.51-15.85,24.02-10.16,45.59-24.7,64.11-43.22,18.52-18.52,33.06-40.09,43.22-64.11,10.52-24.87,15.85-51.28,15.85-78.51s-5.33-53.64-15.85-78.51Zm-110.54-99.75c23.04,9.74,43.73,23.69,61.49,41.46,17.77,17.77,31.72,38.46,41.46,61.49,9.56,22.59,14.65,46.52,15.16,71.18h-82.87c-.6-33.47-6.06-62.79-16.63-89.45-10.04-25.34-23.07-43.69-33.3-56.84-13.84-17.8-31.98-33.22-44.93-42.42,20.59,1.64,40.58,6.52,59.63,14.58Zm-32.51,182.37v3.76h-34.62v71.23h-16.34v-71.23h-34.62v-17.35h34.62v-35.95h16.34v35.95h34.62v13.6Zm-26.39-21.83v-35.95h-12.29V109.34c11,6.87,33.29,23.84,49.99,45.31,9.89,12.72,22.49,30.45,32.15,54.82,10.18,25.69,15.45,54.02,16.05,86.42h-51.28v-13.6h-34.62Zm-20.52-35.95h-12.28v35.95h-34.62v13.6h-51.27c.64-29.35,5.72-56.98,15.13-82.23,8.16-21.9,19.6-42.1,33.99-60.05,19.68-24.55,39.53-38.36,49.05-44.15V246.34Zm-46.91,57.78v11.99h34.62v71.23h12.28v103.4c-10.08-6.34-30.02-21.92-50.75-45.34-31.18-35.23-47.15-82.76-47.49-141.29h51.33Zm55.14,83.22h12.29v-71.23h34.62v-11.99h51.33c-.19,31.09-5.1,59.96-14.6,85.85-7.9,21.53-18.99,41.11-32.96,58.2-19.04,23.29-39.63,37.03-50.68,42.88v-103.71ZM121.75,224.7c9.74-23.04,23.69-43.73,41.46-61.49,17.77-17.77,38.46-31.72,61.49-41.46,19.01-8.04,38.98-12.92,59.52-14.57-11.73,8.16-28.24,21.84-43.82,41.27-14.94,18.64-26.81,39.61-35.28,62.32-9.76,26.17-15.01,54.77-15.65,85.11H106.59c.51-24.66,5.6-48.59,15.16-71.18Zm102.95,253.55c-23.04-9.74-43.73-23.69-61.49-41.46-17.77-17.77-31.72-38.46-41.46-61.49-9.56-22.59-14.65-46.52-15.16-71.18h82.82c.34,60.61,17.01,109.97,49.56,146.75,16.07,18.16,33.11,33.04,45.37,41.97-20.59-1.64-40.59-6.52-59.64-14.58Zm253.55-102.95c-9.74,23.04-23.69,43.73-41.46,61.49-17.77,17.77-38.46,31.72-61.49,41.46-18.47,7.81-37.83,12.64-57.76,14.42,2.17-1.39,4.44-2.92,6.8-4.6,13.48-9.63,25.87-21.3,36.82-34.69,14.56-17.8,26.11-38.19,34.32-60.58,9.83-26.8,14.9-56.63,15.1-88.69h82.82c-.51,24.66-5.6,48.59-15.16,71.18Z"></path></svg> 