<?xml version="1.0" encoding="UTF-8"?> <svg xmlns="http://www.w3.org/2000/svg" id="Layer_1" data-name="Layer 1" viewBox="0 0 600 600"><defs><style> .cls-1 { fill: #343537; stroke: #343537; stroke-miterlimit: 10; stroke-width: 2px; } </style></defs><path class="cls-1" d="M499.09,95.79c-.98-.63-2.21-.73-3.28-.25l-16.48,7.39c-.43-3.76-2.56-7.06-5.88-9.01-3.74-2.2-8.23-2.26-12.03-.16l-3.53,1.96v-3.26c0-4.58-2.53-8.71-6.61-10.79-4.07-2.08-8.91-1.71-12.62,.97l-138.43,100.1-1.24-.56L161.33,82.63c-3.71-2.68-8.54-3.05-12.62-.97-4.07,2.08-6.61,6.22-6.61,10.79v3.13l-3.28-1.82c-3.79-2.1-8.29-2.04-12.03,.16-3.14,1.85-5.21,4.91-5.8,8.41l-16.81-7.54c-1.07-.48-2.3-.38-3.28,.25-.98,.63-1.57,1.72-1.57,2.89V429.43c0,1.37,.81,2.61,2.07,3.16l195.61,85.35c.27,.47,.64,.88,1.1,1.18,.57,.37,1.23,.56,1.89,.56,.47,0,.94-.1,1.38-.29l197.22-86.06c1.25-.55,2.07-1.79,2.07-3.16V98.68c0-1.17-.59-2.26-1.57-2.89Zm-34.33,3.99c1.64-.91,3.58-.88,5.19,.07,1.61,.95,2.58,2.64,2.58,4.51V392.21c0,7.62-4.47,14.61-11.4,17.79l-110.86,50.99,95.03-58.52c7.77-4.78,12.59-13.42,12.59-22.54V103.59l6.87-3.81Zm-22.06-11.57c1.63-1.18,3.66-1.33,5.45-.42,1.79,.91,2.85,2.66,2.85,4.66V379.94c0,6.75-3.57,13.14-9.31,16.67l-138,84.98V188.72l25.53-18.46,19.23-13.9,94.25-68.15Zm-293.71,4.24c0-2.01,1.07-3.75,2.85-4.66,.77-.39,1.59-.59,2.4-.59,1.07,0,2.13,.34,3.05,1.01l93.44,67.56,17.31,12.51,27.49,19.88-2.88-1.29,3.9,2.16V481.75l-138.25-85.13c-5.75-3.54-9.31-9.93-9.31-16.67V92.45Zm-21.28,11.91c0-1.87,.96-3.56,2.58-4.51,.83-.49,1.74-.73,2.66-.73s1.74,.22,2.54,.66l6.62,3.67V379.94c0,9.12,4.82,17.76,12.59,22.54l94.29,58.07-109.88-50.54c-6.92-3.19-11.4-10.17-11.4-17.79V104.36Zm-21.49-1.11l14.61,6.55V392.21c0,10.3,6.05,19.74,15.41,24.05l160.32,73.74v20.23l-190.33-83.05V103.25ZM493.78,427.93l-190.33,83.05v-20.86l160.57-73.86c9.36-4.31,15.41-13.74,15.41-24.05V110.44l14.36-6.44V427.93Z"></path><path class="cls-1" d="M179.14,174.61l85.08,61.52c.61,.44,1.32,.65,2.01,.65,1.07,0,2.12-.49,2.79-1.43,1.11-1.54,.77-3.69-.77-4.81l-85.08-61.52c-1.54-1.11-3.69-.77-4.81,.77-1.11,1.54-.77,3.69,.77,4.81Z"></path><path class="cls-1" d="M179.14,232.25l85.08,61.52c.61,.44,1.32,.65,2.01,.65,1.07,0,2.12-.49,2.79-1.43,1.11-1.54,.77-3.69-.77-4.81l-85.08-61.52c-1.54-1.11-3.69-.77-4.81,.77-1.11,1.54-.77,3.69,.77,4.81Z"></path><path class="cls-1" d="M179.14,289.88l85.08,61.52c.61,.44,1.32,.65,2.01,.65,1.07,0,2.12-.49,2.79-1.43,1.11-1.54,.77-3.69-.77-4.81l-85.08-61.52c-1.54-1.11-3.69-.77-4.81,.77-1.11,1.54-.77,3.69,.77,4.81Z"></path><path class="cls-1" d="M179.14,347.52l85.08,61.52c.61,.44,1.32,.65,2.01,.65,1.07,0,2.12-.49,2.79-1.43,1.11-1.54,.77-3.69-.77-4.81l-85.08-61.52c-1.54-1.11-3.69-.77-4.81,.77-1.11,1.54-.77,3.69,.77,4.81Z"></path><path class="cls-1" d="M334.69,236.79c.7,0,1.4-.21,2.01-.65l85.08-61.52c1.54-1.11,1.89-3.27,.77-4.81-1.11-1.54-3.27-1.89-4.81-.77l-85.08,61.52c-1.54,1.11-1.89,3.27-.77,4.81,.67,.93,1.73,1.43,2.79,1.43Z"></path><path class="cls-1" d="M334.69,294.42c.7,0,1.4-.21,2.01-.65l85.08-61.52c1.54-1.11,1.89-3.27,.77-4.81-1.11-1.54-3.27-1.89-4.81-.77l-85.08,61.52c-1.54,1.11-1.89,3.27-.77,4.81,.67,.93,1.73,1.43,2.79,1.43Z"></path><path class="cls-1" d="M334.69,352.06c.7,0,1.4-.21,2.01-.65l85.08-61.52c1.54-1.11,1.89-3.27,.77-4.81-1.11-1.54-3.27-1.89-4.81-.77l-85.08,61.52c-1.54,1.11-1.89,3.27-.77,4.81,.67,.93,1.73,1.43,2.79,1.43Z"></path><path class="cls-1" d="M334.69,409.69c.7,0,1.4-.21,2.01-.65l85.08-61.52c1.54-1.11,1.89-3.27,.77-4.81-1.11-1.54-3.27-1.89-4.81-.77l-85.08,61.52c-1.54,1.11-1.89,3.27-.77,4.81,.67,.93,1.73,1.43,2.79,1.43Z"></path></svg> 