<?xml version="1.0" encoding="UTF-8"?> <svg xmlns="http://www.w3.org/2000/svg" id="Layer_1" data-name="Layer 1" viewBox="0 0 600 600"><defs><style> .cls-1 { fill: #343537; stroke: #343537; stroke-miterlimit: 10; stroke-width: 2px; } </style></defs><path class="cls-1" d="M235.44,339.51c-8.54-15.82-28.35-21.75-44.18-13.23-1.32,.71-1.88,2.32-1.29,3.7l9.2,21.53-11.72-13.84-13.69-59.37c-1.96-8.49-7.11-15.71-14.5-20.33-6.56-4.1-14.19-5.71-21.76-4.66-7.99-8.31-20.15-12.14-32.05-8.93l-.56,.15c-.74,.2-1.38,.69-1.76,1.35-.38,.67-.49,1.46-.29,2.2l25.77,95.56c.07,.27,.18,.52,.32,.76l57.82,94.73s.05,.08,.08,.12c6.5,9.58,26.74,40.81,26.94,41.13,.53,.83,1.45,1.32,2.44,1.32h61.78c1.42,0,2.63-1.03,2.86-2.43,.02-.12,1.91-11.67,3.02-24.39,1.55-17.77,.91-28.86-1.96-33.89l-46.47-81.48Zm-17.65,136.39c-3.94-6.07-20.31-31.3-26.11-39.85l-57.57-94.32-24.88-92.26c8.37-1.5,16.7,1.11,22.7,6.52,1.27,1.14,2.44,2.41,3.48,3.8,1.99,2.65,3.52,5.72,4.44,9.11l4.43,16.42,11.62,43.09c.12,.46,.36,.89,.69,1.24l61.13,64.77c.97,1.02,2.52,1.21,3.7,.44,1.18-.77,1.63-2.27,1.08-3.57l-2.82-6.59-3.88-9.07-3.88-9.06-15.52-36.3c12.57-5.25,27.36-.2,33.95,12.04,.01,.02,.02,.04,.03,.06l46.49,81.51c3.89,6.82,1.35,34.51-1.36,52.03h-57.73Zm-49.69-196.3l13.85,60.05c.1,.45,.31,.87,.61,1.22l24.36,28.76,3.82,8.93-49.44-52.39-15.85-58.8c-.84-3.1-2.1-5.98-3.7-8.59,5.06-.05,10.04,1.34,14.44,4.09,6.08,3.8,10.31,9.74,11.92,16.72Z"></path><path class="cls-1" d="M496.86,245.88c-.38-.67-1.02-1.15-1.76-1.35l-.56-.15c-11.89-3.21-24.06,.62-32.05,8.93-16.54-2.3-32.43,8.41-36.26,24.99l-13.69,59.37-11.73,13.84,9.2-21.53c.59-1.38,.03-2.98-1.29-3.7-7.67-4.13-16.5-5.03-24.84-2.52-8.34,2.5-15.2,8.09-19.34,15.75l-46.47,81.48c-2.87,5.03-3.51,16.12-1.96,33.89,1.11,12.72,3,24.27,3.02,24.39,.23,1.4,1.44,2.43,2.86,2.43h61.78c.98,0,1.9-.5,2.44-1.32,.2-.31,20.44-31.55,26.94-41.13,.03-.04,.05-.08,.08-.12l57.82-94.73c.14-.24,.25-.49,.32-.76l25.77-95.56c.2-.74,.1-1.54-.29-2.2Zm-172.39,230.02c-2.71-17.52-5.25-45.2-1.36-52.03l46.49-81.51s.02-.04,.03-.06c3.4-6.31,9.05-10.92,15.91-12.98,6.01-1.8,12.33-1.46,18.04,.93l-15.52,36.3-3.88,9.06-3.88,9.07-2.82,6.59c-.55,1.29-.1,2.8,1.08,3.57,1.18,.77,2.74,.59,3.7-.44l61.13-64.77c.33-.35,.57-.77,.69-1.24l11.62-43.08,4.43-16.42c.91-3.39,2.45-6.46,4.44-9.11,1.04-1.38,2.21-2.65,3.48-3.8,6-5.41,14.33-8.02,22.7-6.52l-24.88,92.26-57.57,94.32c-5.8,8.55-22.17,33.78-26.11,39.85h-57.73Zm93.57-136.24l13.85-60.05c2.87-12.47,14.06-20.9,26.35-20.8-1.6,2.61-2.86,5.48-3.7,8.58l-15.85,58.8-49.44,52.39,3.82-8.93,24.36-28.76c.3-.35,.51-.77,.61-1.22Z"></path><path class="cls-1" d="M323.03,297.44c3.47-4.35,7.05-8.85,10.81-14,13.98-19.15,20.04-39.8,18.03-61.39-1.6-17.16-8.3-34.89-19.9-52.68-10.25-15.71-22.52-28.59-31.01-36.63-9.21-8.72-15.92-13.67-16.2-13.87-1.18-.87-2.83-.72-3.83,.35-1,1.07-1.05,2.72-.11,3.85,7.19,8.63,7.83,19.52,2.01,34.27-6.01,15.24-19.21,34.75-40.34,59.65-14.88,17.53-24.13,34.64-27.51,50.86-2.97,14.29-1.45,28.09,4.53,41.01,4.66,10.07,12.08,19.7,22.04,28.6,7.9,7.05,17.41,13.68,28.27,19.69,9.63,5.33,18.58,9.19,24.38,11.49,3.29,1.3,5.95,2.26,7.61,2.83,3.12,1.08,3.23,1.08,3.72,1.08,.93,0,1.81-.45,2.35-1.21s.69-1.73,.4-2.61c-12.41-37.19-2.19-50.02,14.75-71.27Zm-54.3,52.4c-11.26-6.6-20.81-13.84-28.37-21.53-9.32-9.48-15.63-19.65-18.74-30.25-6.89-23.43,1.62-49.44,25.28-77.33h0c21.55-25.39,35.06-45.43,41.31-61.28,4.12-10.45,5.29-19.5,3.49-27.32,9.52,8.46,23.84,22.66,35.4,40.4,11.08,17,17.47,33.84,18.98,50.05,1.88,20.14-3.82,39.46-16.94,57.43-3.69,5.05-7.23,9.5-10.66,13.81-8.55,10.72-15.93,19.99-19.37,31.51-3.36,11.23-2.79,23.64,1.92,39.69-6.77-2.48-19.18-7.49-32.31-15.18Z"></path><path class="cls-1" d="M317.38,365.11c.26,.07,.52,.11,.77,.11,.69,0,1.36-.24,1.9-.7,5.08-4.38,16.34-12.55,33.48-24.3,0,0,.01,0,.02-.01,18.17-12.42,28.95-28.22,32.04-46.96,3.32-20.11-2.97-40.04-8.82-53.22-2.2-4.94-4.72-9.86-7.52-14.6-.66-1.12-1.97-1.66-3.23-1.34-1.25,.32-2.14,1.44-2.18,2.73-.18,6.9-1.78,16.2-4.39,25.5-5.14,18.3-13.17,34.38-22.02,44.1-13.97,15.35-22.16,29.87-24.35,43.15-1.68,10.23,.31,17.57,2.31,23.65,.3,.92,1.05,1.63,1.98,1.89Zm54.08-122.73c5.53,12.45,11.48,31.23,8.4,49.92h0c-2.82,17.11-12.77,31.61-29.57,43.1,0,0-.01,.01-.02,.02-14.22,9.74-24.47,17.08-30.59,21.9-1.22-4.59-1.98-10-.87-16.8,2-12.16,9.71-25.68,22.91-40.19,9.44-10.37,17.94-27.3,23.32-46.44,1.1-3.91,2.72-10.32,3.73-17.21,.95,1.89,1.85,3.8,2.69,5.7Z"></path></svg> 